<svg width="66" height="66" viewBox="0 0 66 66" fill="none" xmlns="http://www.w3.org/2000/svg">
<path d="M52.6521 64.9993H13.223L0.937988 55.2011V10.7981L13.223 1H52.6521L64.937 10.7981V55.2011L52.6521 64.9993Z" stroke="#677F91" stroke-linecap="round" stroke-linejoin="round"/>
<path d="M48.8833 58.8825H16.9933L7.05762 50.9581V15.0411L16.9933 7.1167H48.8833L58.819 15.0411V50.9581L48.8833 58.8825Z" stroke="#677F91" stroke-linecap="round" stroke-linejoin="round"/>
<path d="M43.2667 49.7702H22.6083L16.1699 44.6352V21.3811L22.6083 16.2461H43.2667L49.711 21.3811V44.6493L43.2667 49.7702Z" stroke="#677F91" stroke-linecap="round" stroke-linejoin="round"/>
<path d="M13.2231 1L22.6085 16.2305" stroke="#677F91" stroke-linecap="round" stroke-linejoin="round"/>
<path d="M52.6522 65L43.2728 49.7695L32.9407 65L22.6085 49.7695L13.2231 65" stroke="#677F91" stroke-linecap="round" stroke-linejoin="round"/>
<path d="M43.2729 49.7688L64.9373 55.2011L49.7113 44.6337L64.9373 32.9996L49.7113 21.3655L64.9373 10.7981L43.2729 16.2305L52.6524 1" stroke="#677F91" stroke-linecap="round" stroke-linejoin="round"/>
<path d="M22.6083 49.7688L0.937988 55.2011L16.17 44.6337L0.937988 32.9996L16.17 21.3655L0.937988 10.7981L22.6083 16.2305L32.9405 1L43.2727 16.2305" stroke="#677F91" stroke-linecap="round" stroke-linejoin="round"/>
</svg>
